<mxfile host="app.diagrams.net" modified="2023-11-28T07:04:18.923Z" agent="Mozilla/5.0 (Windows NT 10.0; Win64; x64) AppleWebKit/537.36 (KHTML, like Gecko) Chrome/119.0.0.0 Safari/537.36" etag="2LzOryBnVQP8E67ob2JK" version="22.1.4" type="device">
  <diagram name="Sayfa -1" id="JaI1AfPTh-bl-Bo0XTq5">
    <mxGraphModel dx="1595" dy="848" grid="1" gridSize="10" guides="1" tooltips="1" connect="1" arrows="1" fold="1" page="1" pageScale="1" pageWidth="827" pageHeight="1169" math="0" shadow="0">
      <root>
        <object label="" JaI1AfPTh-bl-Bo0XTq5="321" id="0">
          <mxCell />
        </object>
        <mxCell id="1" parent="0" />
        <mxCell id="la78TpVZs18s7smpZ9RU-53" value="" style="shape=tableRow;horizontal=0;startSize=0;swimlaneHead=0;swimlaneBody=0;fillColor=none;collapsible=0;dropTarget=0;points=[[0,0.5],[1,0.5]];portConstraint=eastwest;top=0;left=0;right=0;bottom=0;html=1;rounded=1;" parent="1" vertex="1">
          <mxGeometry x="274" y="380" width="150" height="30" as="geometry" />
        </mxCell>
        <mxCell id="la78TpVZs18s7smpZ9RU-78" value="" style="group" parent="1" vertex="1" connectable="0">
          <mxGeometry x="110" y="560" width="176.83000000000004" height="280" as="geometry" />
        </mxCell>
        <mxCell id="la78TpVZs18s7smpZ9RU-56" value="UserTable" style="shape=table;startSize=30;container=1;collapsible=1;childLayout=tableLayout;fixedRows=1;rowLines=0;fontStyle=1;align=center;resizeLast=1;html=1;rounded=1;movable=1;resizable=1;rotatable=1;deletable=1;editable=1;locked=0;connectable=1;" parent="la78TpVZs18s7smpZ9RU-78" vertex="1">
          <mxGeometry x="0.00021505376344421734" y="10" width="164.51612903225802" height="240" as="geometry" />
        </mxCell>
        <mxCell id="la78TpVZs18s7smpZ9RU-57" value="" style="shape=tableRow;horizontal=0;startSize=0;swimlaneHead=0;swimlaneBody=0;fillColor=none;collapsible=0;dropTarget=0;points=[[0,0.5],[1,0.5]];portConstraint=eastwest;top=0;left=0;right=0;bottom=1;rounded=1;" parent="la78TpVZs18s7smpZ9RU-56" vertex="1">
          <mxGeometry y="30" width="164.51612903225802" height="30" as="geometry" />
        </mxCell>
        <mxCell id="la78TpVZs18s7smpZ9RU-58" value="PK" style="shape=partialRectangle;connectable=0;fillColor=none;top=0;left=0;bottom=0;right=0;fontStyle=1;overflow=hidden;whiteSpace=wrap;html=1;rounded=1;" parent="la78TpVZs18s7smpZ9RU-57" vertex="1">
          <mxGeometry width="29.139784946236432" height="30" as="geometry">
            <mxRectangle width="29.139784946236432" height="30" as="alternateBounds" />
          </mxGeometry>
        </mxCell>
        <mxCell id="la78TpVZs18s7smpZ9RU-59" value="UniqueID" style="shape=partialRectangle;connectable=0;fillColor=none;top=0;left=0;bottom=0;right=0;align=left;spacingLeft=6;fontStyle=5;overflow=hidden;whiteSpace=wrap;html=1;rounded=1;" parent="la78TpVZs18s7smpZ9RU-57" vertex="1">
          <mxGeometry x="29.139784946236432" width="135.3763440860216" height="30" as="geometry">
            <mxRectangle width="135.3763440860216" height="30" as="alternateBounds" />
          </mxGeometry>
        </mxCell>
        <mxCell id="la78TpVZs18s7smpZ9RU-60" value="" style="shape=tableRow;horizontal=0;startSize=0;swimlaneHead=0;swimlaneBody=0;fillColor=none;collapsible=0;dropTarget=0;points=[[0,0.5],[1,0.5]];portConstraint=eastwest;top=0;left=0;right=0;bottom=0;rounded=1;" parent="la78TpVZs18s7smpZ9RU-56" vertex="1">
          <mxGeometry y="60" width="164.51612903225802" height="30" as="geometry" />
        </mxCell>
        <mxCell id="la78TpVZs18s7smpZ9RU-61" value="1" style="shape=partialRectangle;connectable=0;fillColor=none;top=0;left=0;bottom=0;right=0;editable=1;overflow=hidden;whiteSpace=wrap;html=1;rounded=1;" parent="la78TpVZs18s7smpZ9RU-60" vertex="1">
          <mxGeometry width="29.139784946236432" height="30" as="geometry">
            <mxRectangle width="29.139784946236432" height="30" as="alternateBounds" />
          </mxGeometry>
        </mxCell>
        <mxCell id="la78TpVZs18s7smpZ9RU-62" value="USER_ID" style="shape=partialRectangle;connectable=0;fillColor=none;top=0;left=0;bottom=0;right=0;align=left;spacingLeft=6;overflow=hidden;whiteSpace=wrap;html=1;rounded=1;" parent="la78TpVZs18s7smpZ9RU-60" vertex="1">
          <mxGeometry x="29.139784946236432" width="135.3763440860216" height="30" as="geometry">
            <mxRectangle width="135.3763440860216" height="30" as="alternateBounds" />
          </mxGeometry>
        </mxCell>
        <mxCell id="la78TpVZs18s7smpZ9RU-63" value="" style="shape=tableRow;horizontal=0;startSize=0;swimlaneHead=0;swimlaneBody=0;fillColor=none;collapsible=0;dropTarget=0;points=[[0,0.5],[1,0.5]];portConstraint=eastwest;top=0;left=0;right=0;bottom=0;rounded=1;" parent="la78TpVZs18s7smpZ9RU-56" vertex="1">
          <mxGeometry y="90" width="164.51612903225802" height="30" as="geometry" />
        </mxCell>
        <mxCell id="la78TpVZs18s7smpZ9RU-64" value="2" style="shape=partialRectangle;connectable=0;fillColor=none;top=0;left=0;bottom=0;right=0;editable=1;overflow=hidden;whiteSpace=wrap;html=1;rounded=1;" parent="la78TpVZs18s7smpZ9RU-63" vertex="1">
          <mxGeometry width="29.139784946236432" height="30" as="geometry">
            <mxRectangle width="29.139784946236432" height="30" as="alternateBounds" />
          </mxGeometry>
        </mxCell>
        <mxCell id="la78TpVZs18s7smpZ9RU-65" value="Username" style="shape=partialRectangle;connectable=0;fillColor=none;top=0;left=0;bottom=0;right=0;align=left;spacingLeft=6;overflow=hidden;whiteSpace=wrap;html=1;rounded=1;" parent="la78TpVZs18s7smpZ9RU-63" vertex="1">
          <mxGeometry x="29.139784946236432" width="135.3763440860216" height="30" as="geometry">
            <mxRectangle width="135.3763440860216" height="30" as="alternateBounds" />
          </mxGeometry>
        </mxCell>
        <mxCell id="la78TpVZs18s7smpZ9RU-66" value="" style="shape=tableRow;horizontal=0;startSize=0;swimlaneHead=0;swimlaneBody=0;fillColor=none;collapsible=0;dropTarget=0;points=[[0,0.5],[1,0.5]];portConstraint=eastwest;top=0;left=0;right=0;bottom=0;rounded=1;" parent="la78TpVZs18s7smpZ9RU-56" vertex="1">
          <mxGeometry y="120" width="164.51612903225802" height="30" as="geometry" />
        </mxCell>
        <mxCell id="la78TpVZs18s7smpZ9RU-67" value="3" style="shape=partialRectangle;connectable=0;fillColor=none;top=0;left=0;bottom=0;right=0;editable=1;overflow=hidden;whiteSpace=wrap;html=1;rounded=1;" parent="la78TpVZs18s7smpZ9RU-66" vertex="1">
          <mxGeometry width="29.139784946236432" height="30" as="geometry">
            <mxRectangle width="29.139784946236432" height="30" as="alternateBounds" />
          </mxGeometry>
        </mxCell>
        <mxCell id="la78TpVZs18s7smpZ9RU-68" value="Pass" style="shape=partialRectangle;connectable=0;fillColor=none;top=0;left=0;bottom=0;right=0;align=left;spacingLeft=6;overflow=hidden;whiteSpace=wrap;html=1;rounded=1;" parent="la78TpVZs18s7smpZ9RU-66" vertex="1">
          <mxGeometry x="29.139784946236432" width="135.3763440860216" height="30" as="geometry">
            <mxRectangle width="135.3763440860216" height="30" as="alternateBounds" />
          </mxGeometry>
        </mxCell>
        <mxCell id="la78TpVZs18s7smpZ9RU-69" value="4" style="shape=partialRectangle;connectable=0;fillColor=none;top=0;left=0;bottom=0;right=0;editable=1;overflow=hidden;whiteSpace=wrap;html=1;rounded=1;" parent="la78TpVZs18s7smpZ9RU-78" vertex="1">
          <mxGeometry x="-9.13978494623654" y="160" width="27.419354838709676" height="30" as="geometry">
            <mxRectangle width="30" height="30" as="alternateBounds" />
          </mxGeometry>
        </mxCell>
        <mxCell id="la78TpVZs18s7smpZ9RU-70" value="Email" style="shape=partialRectangle;connectable=0;fillColor=none;top=0;left=0;bottom=0;right=0;align=left;spacingLeft=6;overflow=hidden;whiteSpace=wrap;html=1;rounded=1;" parent="la78TpVZs18s7smpZ9RU-78" vertex="1">
          <mxGeometry x="18.2795698924731" y="160" width="137.09677419354836" height="30" as="geometry">
            <mxRectangle width="150" height="30" as="alternateBounds" />
          </mxGeometry>
        </mxCell>
        <mxCell id="la78TpVZs18s7smpZ9RU-72" value="Hash" style="shape=partialRectangle;connectable=0;fillColor=none;top=0;left=0;bottom=0;right=0;align=left;spacingLeft=6;overflow=hidden;whiteSpace=wrap;html=1;rounded=1;" parent="la78TpVZs18s7smpZ9RU-78" vertex="1">
          <mxGeometry x="18.2795698924731" y="190" width="137.09677419354836" height="30" as="geometry">
            <mxRectangle width="150" height="30" as="alternateBounds" />
          </mxGeometry>
        </mxCell>
        <mxCell id="la78TpVZs18s7smpZ9RU-71" value="5" style="shape=partialRectangle;connectable=0;fillColor=none;top=0;left=0;bottom=0;right=0;editable=1;overflow=hidden;whiteSpace=wrap;html=1;rounded=1;" parent="la78TpVZs18s7smpZ9RU-78" vertex="1">
          <mxGeometry x="-9.13978494623654" y="190" width="27.419354838709676" height="30" as="geometry">
            <mxRectangle width="30" height="30" as="alternateBounds" />
          </mxGeometry>
        </mxCell>
        <mxCell id="la78TpVZs18s7smpZ9RU-74" value="6" style="shape=partialRectangle;connectable=0;fillColor=none;top=0;left=0;bottom=0;right=0;editable=1;overflow=hidden;whiteSpace=wrap;html=1;rounded=1;" parent="la78TpVZs18s7smpZ9RU-78" vertex="1">
          <mxGeometry x="-9.13978494623654" y="220" width="27.419354838709676" height="30" as="geometry">
            <mxRectangle width="30" height="30" as="alternateBounds" />
          </mxGeometry>
        </mxCell>
        <mxCell id="la78TpVZs18s7smpZ9RU-75" value="Registry_Date" style="shape=partialRectangle;connectable=0;fillColor=none;top=0;left=0;bottom=0;right=0;align=left;spacingLeft=6;overflow=hidden;whiteSpace=wrap;html=1;rounded=1;" parent="la78TpVZs18s7smpZ9RU-78" vertex="1">
          <mxGeometry x="18.2795698924731" y="220" width="137.09677419354836" height="30" as="geometry">
            <mxRectangle width="150" height="30" as="alternateBounds" />
          </mxGeometry>
        </mxCell>
        <mxCell id="la78TpVZs18s7smpZ9RU-111" value="User_Controller" style="swimlane;horizontal=0;whiteSpace=wrap;html=1;rounded=1;" parent="1" vertex="1">
          <mxGeometry x="600" y="270" width="740" height="240" as="geometry" />
        </mxCell>
        <mxCell id="q8q3oEfRorzwaX2kdPTE-100" value="UserAsset1" style="swimlane;fontStyle=0;childLayout=stackLayout;horizontal=1;startSize=26;fillColor=none;horizontalStack=0;resizeParent=1;resizeParentMax=0;resizeLast=0;collapsible=1;marginBottom=0;whiteSpace=wrap;html=1;" parent="la78TpVZs18s7smpZ9RU-111" vertex="1">
          <mxGeometry x="37" y="5" width="190" height="230" as="geometry" />
        </mxCell>
        <mxCell id="q8q3oEfRorzwaX2kdPTE-101" value="- id: int" style="text;strokeColor=none;fillColor=none;align=left;verticalAlign=top;spacingLeft=4;spacingRight=4;overflow=hidden;rotatable=0;points=[[0,0.5],[1,0.5]];portConstraint=eastwest;whiteSpace=wrap;html=1;" parent="q8q3oEfRorzwaX2kdPTE-100" vertex="1">
          <mxGeometry y="26" width="190" height="26" as="geometry" />
        </mxCell>
        <mxCell id="q8q3oEfRorzwaX2kdPTE-102" value="- user_id: int" style="text;strokeColor=none;fillColor=none;align=left;verticalAlign=top;spacingLeft=4;spacingRight=4;overflow=hidden;rotatable=0;points=[[0,0.5],[1,0.5]];portConstraint=eastwest;whiteSpace=wrap;html=1;" parent="q8q3oEfRorzwaX2kdPTE-100" vertex="1">
          <mxGeometry y="52" width="190" height="26" as="geometry" />
        </mxCell>
        <mxCell id="q8q3oEfRorzwaX2kdPTE-104" value="- asset_id: int" style="text;strokeColor=none;fillColor=none;align=left;verticalAlign=top;spacingLeft=4;spacingRight=4;overflow=hidden;rotatable=0;points=[[0,0.5],[1,0.5]];portConstraint=eastwest;whiteSpace=wrap;html=1;" parent="q8q3oEfRorzwaX2kdPTE-100" vertex="1">
          <mxGeometry y="78" width="190" height="26" as="geometry" />
        </mxCell>
        <mxCell id="q8q3oEfRorzwaX2kdPTE-105" value="- quantity: float" style="text;strokeColor=none;fillColor=none;align=left;verticalAlign=top;spacingLeft=4;spacingRight=4;overflow=hidden;rotatable=0;points=[[0,0.5],[1,0.5]];portConstraint=eastwest;whiteSpace=wrap;html=1;" parent="q8q3oEfRorzwaX2kdPTE-100" vertex="1">
          <mxGeometry y="104" width="190" height="26" as="geometry" />
        </mxCell>
        <mxCell id="q8q3oEfRorzwaX2kdPTE-107" value="- purchase_price: float" style="text;strokeColor=none;fillColor=none;align=left;verticalAlign=top;spacingLeft=4;spacingRight=4;overflow=hidden;rotatable=0;points=[[0,0.5],[1,0.5]];portConstraint=eastwest;whiteSpace=wrap;html=1;" parent="q8q3oEfRorzwaX2kdPTE-100" vertex="1">
          <mxGeometry y="130" width="190" height="26" as="geometry" />
        </mxCell>
        <mxCell id="q8q3oEfRorzwaX2kdPTE-108" value="- purchase_date: datetime" style="text;strokeColor=none;fillColor=none;align=left;verticalAlign=top;spacingLeft=4;spacingRight=4;overflow=hidden;rotatable=0;points=[[0,0.5],[1,0.5]];portConstraint=eastwest;whiteSpace=wrap;html=1;" parent="q8q3oEfRorzwaX2kdPTE-100" vertex="1">
          <mxGeometry y="156" width="190" height="26" as="geometry" />
        </mxCell>
        <mxCell id="q8q3oEfRorzwaX2kdPTE-106" value="+ getId(): int" style="text;strokeColor=none;fillColor=none;align=left;verticalAlign=top;spacingLeft=4;spacingRight=4;overflow=hidden;rotatable=0;points=[[0,0.5],[1,0.5]];portConstraint=eastwest;whiteSpace=wrap;html=1;" parent="q8q3oEfRorzwaX2kdPTE-100" vertex="1">
          <mxGeometry y="182" width="190" height="22" as="geometry" />
        </mxCell>
        <mxCell id="q8q3oEfRorzwaX2kdPTE-116" value="+ getUserId(): int" style="text;strokeColor=none;fillColor=none;align=left;verticalAlign=top;spacingLeft=4;spacingRight=4;overflow=hidden;rotatable=0;points=[[0,0.5],[1,0.5]];portConstraint=eastwest;whiteSpace=wrap;html=1;" parent="q8q3oEfRorzwaX2kdPTE-100" vertex="1">
          <mxGeometry y="204" width="190" height="26" as="geometry" />
        </mxCell>
        <mxCell id="q8q3oEfRorzwaX2kdPTE-109" value="UserAsset2" style="swimlane;fontStyle=0;childLayout=stackLayout;horizontal=1;startSize=26;fillColor=none;horizontalStack=0;resizeParent=1;resizeParentMax=0;resizeLast=0;collapsible=1;marginBottom=0;whiteSpace=wrap;html=1;" parent="la78TpVZs18s7smpZ9RU-111" vertex="1">
          <mxGeometry x="240" y="5" width="200" height="230" as="geometry" />
        </mxCell>
        <mxCell id="q8q3oEfRorzwaX2kdPTE-110" value="+ getAssetId(): int" style="text;strokeColor=none;fillColor=none;align=left;verticalAlign=top;spacingLeft=4;spacingRight=4;overflow=hidden;rotatable=0;points=[[0,0.5],[1,0.5]];portConstraint=eastwest;whiteSpace=wrap;html=1;" parent="q8q3oEfRorzwaX2kdPTE-109" vertex="1">
          <mxGeometry y="26" width="200" height="26" as="geometry" />
        </mxCell>
        <mxCell id="q8q3oEfRorzwaX2kdPTE-111" value="+ getQuantity(): float" style="text;strokeColor=none;fillColor=none;align=left;verticalAlign=top;spacingLeft=4;spacingRight=4;overflow=hidden;rotatable=0;points=[[0,0.5],[1,0.5]];portConstraint=eastwest;whiteSpace=wrap;html=1;" parent="q8q3oEfRorzwaX2kdPTE-109" vertex="1">
          <mxGeometry y="52" width="200" height="26" as="geometry" />
        </mxCell>
        <mxCell id="q8q3oEfRorzwaX2kdPTE-112" value="+ getPurchasePrice(): float" style="text;strokeColor=none;fillColor=none;align=left;verticalAlign=top;spacingLeft=4;spacingRight=4;overflow=hidden;rotatable=0;points=[[0,0.5],[1,0.5]];portConstraint=eastwest;whiteSpace=wrap;html=1;" parent="q8q3oEfRorzwaX2kdPTE-109" vertex="1">
          <mxGeometry y="78" width="200" height="26" as="geometry" />
        </mxCell>
        <mxCell id="q8q3oEfRorzwaX2kdPTE-113" value="+ getPurchaseDate(): datetime" style="text;strokeColor=none;fillColor=none;align=left;verticalAlign=top;spacingLeft=4;spacingRight=4;overflow=hidden;rotatable=0;points=[[0,0.5],[1,0.5]];portConstraint=eastwest;whiteSpace=wrap;html=1;" parent="q8q3oEfRorzwaX2kdPTE-109" vertex="1">
          <mxGeometry y="104" width="200" height="26" as="geometry" />
        </mxCell>
        <mxCell id="q8q3oEfRorzwaX2kdPTE-114" value="+ setId(id: int): void" style="text;strokeColor=none;fillColor=none;align=left;verticalAlign=top;spacingLeft=4;spacingRight=4;overflow=hidden;rotatable=0;points=[[0,0.5],[1,0.5]];portConstraint=eastwest;whiteSpace=wrap;html=1;" parent="q8q3oEfRorzwaX2kdPTE-109" vertex="1">
          <mxGeometry y="130" width="200" height="26" as="geometry" />
        </mxCell>
        <mxCell id="q8q3oEfRorzwaX2kdPTE-115" value="+ setUserId(userId: int): void" style="text;strokeColor=none;fillColor=none;align=left;verticalAlign=top;spacingLeft=4;spacingRight=4;overflow=hidden;rotatable=0;points=[[0,0.5],[1,0.5]];portConstraint=eastwest;whiteSpace=wrap;html=1;" parent="q8q3oEfRorzwaX2kdPTE-109" vertex="1">
          <mxGeometry y="156" width="200" height="26" as="geometry" />
        </mxCell>
        <mxCell id="q8q3oEfRorzwaX2kdPTE-117" value="+ setAssetId(assetId: int): void&lt;br/&gt;&lt;br/&gt;" style="text;strokeColor=none;fillColor=none;align=left;verticalAlign=top;spacingLeft=4;spacingRight=4;overflow=hidden;rotatable=0;points=[[0,0.5],[1,0.5]];portConstraint=eastwest;whiteSpace=wrap;html=1;" parent="q8q3oEfRorzwaX2kdPTE-109" vertex="1">
          <mxGeometry y="182" width="200" height="22" as="geometry" />
        </mxCell>
        <mxCell id="q8q3oEfRorzwaX2kdPTE-118" value="+ setQuantity(quantity: float): void" style="text;strokeColor=none;fillColor=none;align=left;verticalAlign=top;spacingLeft=4;spacingRight=4;overflow=hidden;rotatable=0;points=[[0,0.5],[1,0.5]];portConstraint=eastwest;whiteSpace=wrap;html=1;" parent="q8q3oEfRorzwaX2kdPTE-109" vertex="1">
          <mxGeometry y="204" width="200" height="26" as="geometry" />
        </mxCell>
        <mxCell id="q8q3oEfRorzwaX2kdPTE-119" value="UserAsset2" style="swimlane;fontStyle=0;childLayout=stackLayout;horizontal=1;startSize=26;fillColor=none;horizontalStack=0;resizeParent=1;resizeParentMax=0;resizeLast=0;collapsible=1;marginBottom=0;whiteSpace=wrap;html=1;" parent="la78TpVZs18s7smpZ9RU-111" vertex="1">
          <mxGeometry x="450" y="5" width="280" height="78" as="geometry" />
        </mxCell>
        <mxCell id="q8q3oEfRorzwaX2kdPTE-129" value="+ setPurchasePrice(purchasePrice: float): void" style="text;strokeColor=none;fillColor=none;align=left;verticalAlign=top;spacingLeft=4;spacingRight=4;overflow=hidden;rotatable=0;points=[[0,0.5],[1,0.5]];portConstraint=eastwest;whiteSpace=wrap;html=1;" parent="q8q3oEfRorzwaX2kdPTE-119" vertex="1">
          <mxGeometry y="26" width="280" height="26" as="geometry" />
        </mxCell>
        <mxCell id="q8q3oEfRorzwaX2kdPTE-128" value="+ setPurchaseDate(purchaseDate: datetime): void" style="text;strokeColor=none;fillColor=none;align=left;verticalAlign=top;spacingLeft=4;spacingRight=4;overflow=hidden;rotatable=0;points=[[0,0.5],[1,0.5]];portConstraint=eastwest;whiteSpace=wrap;html=1;" parent="q8q3oEfRorzwaX2kdPTE-119" vertex="1">
          <mxGeometry y="52" width="280" height="26" as="geometry" />
        </mxCell>
        <mxCell id="la78TpVZs18s7smpZ9RU-212" style="edgeStyle=orthogonalEdgeStyle;rounded=1;orthogonalLoop=1;jettySize=auto;html=1;entryX=1;entryY=0.5;entryDx=0;entryDy=0;" parent="1" source="la78TpVZs18s7smpZ9RU-144" target="la78TpVZs18s7smpZ9RU-209" edge="1">
          <mxGeometry relative="1" as="geometry" />
        </mxCell>
        <mxCell id="la78TpVZs18s7smpZ9RU-144" value="Pörtföy Tablosu" style="shape=table;startSize=30;container=1;collapsible=1;childLayout=tableLayout;fixedRows=1;rowLines=0;fontStyle=1;align=center;resizeLast=1;html=1;rounded=1;" parent="1" vertex="1">
          <mxGeometry x="280" y="274.21000000000004" width="180" height="250" as="geometry" />
        </mxCell>
        <mxCell id="la78TpVZs18s7smpZ9RU-145" value="" style="shape=tableRow;horizontal=0;startSize=0;swimlaneHead=0;swimlaneBody=0;fillColor=none;collapsible=0;dropTarget=0;points=[[0,0.5],[1,0.5]];portConstraint=eastwest;top=0;left=0;right=0;bottom=1;rounded=1;" parent="la78TpVZs18s7smpZ9RU-144" vertex="1">
          <mxGeometry y="30" width="180" height="30" as="geometry" />
        </mxCell>
        <mxCell id="la78TpVZs18s7smpZ9RU-146" value="PK" style="shape=partialRectangle;connectable=0;fillColor=none;top=0;left=0;bottom=0;right=0;fontStyle=1;overflow=hidden;whiteSpace=wrap;html=1;rounded=1;" parent="la78TpVZs18s7smpZ9RU-145" vertex="1">
          <mxGeometry width="30" height="30" as="geometry">
            <mxRectangle width="30" height="30" as="alternateBounds" />
          </mxGeometry>
        </mxCell>
        <mxCell id="la78TpVZs18s7smpZ9RU-147" value="UniqueID" style="shape=partialRectangle;connectable=0;fillColor=none;top=0;left=0;bottom=0;right=0;align=left;spacingLeft=6;fontStyle=5;overflow=hidden;whiteSpace=wrap;html=1;rounded=1;" parent="la78TpVZs18s7smpZ9RU-145" vertex="1">
          <mxGeometry x="30" width="150" height="30" as="geometry">
            <mxRectangle width="150" height="30" as="alternateBounds" />
          </mxGeometry>
        </mxCell>
        <mxCell id="la78TpVZs18s7smpZ9RU-148" value="" style="shape=tableRow;horizontal=0;startSize=0;swimlaneHead=0;swimlaneBody=0;fillColor=none;collapsible=0;dropTarget=0;points=[[0,0.5],[1,0.5]];portConstraint=eastwest;top=0;left=0;right=0;bottom=0;rounded=1;" parent="la78TpVZs18s7smpZ9RU-144" vertex="1">
          <mxGeometry y="60" width="180" height="30" as="geometry" />
        </mxCell>
        <mxCell id="la78TpVZs18s7smpZ9RU-149" value="1" style="shape=partialRectangle;connectable=0;fillColor=none;top=0;left=0;bottom=0;right=0;editable=1;overflow=hidden;whiteSpace=wrap;html=1;rounded=1;" parent="la78TpVZs18s7smpZ9RU-148" vertex="1">
          <mxGeometry width="30" height="30" as="geometry">
            <mxRectangle width="30" height="30" as="alternateBounds" />
          </mxGeometry>
        </mxCell>
        <mxCell id="la78TpVZs18s7smpZ9RU-150" value="ID" style="shape=partialRectangle;connectable=0;fillColor=none;top=0;left=0;bottom=0;right=0;align=left;spacingLeft=6;overflow=hidden;whiteSpace=wrap;html=1;rounded=1;" parent="la78TpVZs18s7smpZ9RU-148" vertex="1">
          <mxGeometry x="30" width="150" height="30" as="geometry">
            <mxRectangle width="150" height="30" as="alternateBounds" />
          </mxGeometry>
        </mxCell>
        <mxCell id="la78TpVZs18s7smpZ9RU-151" value="" style="shape=tableRow;horizontal=0;startSize=0;swimlaneHead=0;swimlaneBody=0;fillColor=none;collapsible=0;dropTarget=0;points=[[0,0.5],[1,0.5]];portConstraint=eastwest;top=0;left=0;right=0;bottom=0;rounded=1;" parent="la78TpVZs18s7smpZ9RU-144" vertex="1">
          <mxGeometry y="90" width="180" height="30" as="geometry" />
        </mxCell>
        <mxCell id="la78TpVZs18s7smpZ9RU-152" value="2" style="shape=partialRectangle;connectable=0;fillColor=none;top=0;left=0;bottom=0;right=0;editable=1;overflow=hidden;whiteSpace=wrap;html=1;rounded=1;" parent="la78TpVZs18s7smpZ9RU-151" vertex="1">
          <mxGeometry width="30" height="30" as="geometry">
            <mxRectangle width="30" height="30" as="alternateBounds" />
          </mxGeometry>
        </mxCell>
        <mxCell id="la78TpVZs18s7smpZ9RU-153" value="user_id" style="shape=partialRectangle;connectable=0;fillColor=none;top=0;left=0;bottom=0;right=0;align=left;spacingLeft=6;overflow=hidden;whiteSpace=wrap;html=1;rounded=1;" parent="la78TpVZs18s7smpZ9RU-151" vertex="1">
          <mxGeometry x="30" width="150" height="30" as="geometry">
            <mxRectangle width="150" height="30" as="alternateBounds" />
          </mxGeometry>
        </mxCell>
        <mxCell id="la78TpVZs18s7smpZ9RU-154" value="" style="shape=tableRow;horizontal=0;startSize=0;swimlaneHead=0;swimlaneBody=0;fillColor=none;collapsible=0;dropTarget=0;points=[[0,0.5],[1,0.5]];portConstraint=eastwest;top=0;left=0;right=0;bottom=0;rounded=1;" parent="la78TpVZs18s7smpZ9RU-144" vertex="1">
          <mxGeometry y="120" width="180" height="30" as="geometry" />
        </mxCell>
        <mxCell id="la78TpVZs18s7smpZ9RU-155" value="3" style="shape=partialRectangle;connectable=0;fillColor=none;top=0;left=0;bottom=0;right=0;editable=1;overflow=hidden;whiteSpace=wrap;html=1;rounded=1;" parent="la78TpVZs18s7smpZ9RU-154" vertex="1">
          <mxGeometry width="30" height="30" as="geometry">
            <mxRectangle width="30" height="30" as="alternateBounds" />
          </mxGeometry>
        </mxCell>
        <mxCell id="la78TpVZs18s7smpZ9RU-156" value="symbol" style="shape=partialRectangle;connectable=0;fillColor=none;top=0;left=0;bottom=0;right=0;align=left;spacingLeft=6;overflow=hidden;whiteSpace=wrap;html=1;rounded=1;" parent="la78TpVZs18s7smpZ9RU-154" vertex="1">
          <mxGeometry x="30" width="150" height="30" as="geometry">
            <mxRectangle width="150" height="30" as="alternateBounds" />
          </mxGeometry>
        </mxCell>
        <mxCell id="la78TpVZs18s7smpZ9RU-157" value="Mindmap" style="swimlane;startSize=20;horizontal=1;containerType=tree;rounded=1;" parent="1" vertex="1">
          <mxGeometry x="60" y="870" width="420" height="126" as="geometry" />
        </mxCell>
        <mxCell id="la78TpVZs18s7smpZ9RU-158" value="" style="edgeStyle=entityRelationEdgeStyle;startArrow=none;endArrow=none;segment=10;curved=1;sourcePerimeterSpacing=0;targetPerimeterSpacing=0;rounded=1;" parent="la78TpVZs18s7smpZ9RU-157" source="la78TpVZs18s7smpZ9RU-162" target="la78TpVZs18s7smpZ9RU-163" edge="1">
          <mxGeometry relative="1" as="geometry" />
        </mxCell>
        <mxCell id="la78TpVZs18s7smpZ9RU-159" value="" style="edgeStyle=entityRelationEdgeStyle;startArrow=none;endArrow=none;segment=10;curved=1;sourcePerimeterSpacing=0;targetPerimeterSpacing=0;rounded=1;" parent="la78TpVZs18s7smpZ9RU-157" source="la78TpVZs18s7smpZ9RU-162" target="la78TpVZs18s7smpZ9RU-164" edge="1">
          <mxGeometry relative="1" as="geometry" />
        </mxCell>
        <mxCell id="la78TpVZs18s7smpZ9RU-160" value="" style="edgeStyle=entityRelationEdgeStyle;startArrow=none;endArrow=none;segment=10;curved=1;sourcePerimeterSpacing=0;targetPerimeterSpacing=0;rounded=1;" parent="la78TpVZs18s7smpZ9RU-157" source="la78TpVZs18s7smpZ9RU-162" target="la78TpVZs18s7smpZ9RU-165" edge="1">
          <mxGeometry relative="1" as="geometry" />
        </mxCell>
        <mxCell id="la78TpVZs18s7smpZ9RU-161" value="" style="edgeStyle=entityRelationEdgeStyle;startArrow=none;endArrow=none;segment=10;curved=1;sourcePerimeterSpacing=0;targetPerimeterSpacing=0;rounded=1;" parent="la78TpVZs18s7smpZ9RU-157" source="la78TpVZs18s7smpZ9RU-162" target="la78TpVZs18s7smpZ9RU-166" edge="1">
          <mxGeometry relative="1" as="geometry" />
        </mxCell>
        <mxCell id="la78TpVZs18s7smpZ9RU-162" value="Ana fikir" style="ellipse;whiteSpace=wrap;html=1;align=center;treeFolding=1;treeMoving=1;newEdgeStyle={&quot;edgeStyle&quot;:&quot;entityRelationEdgeStyle&quot;,&quot;startArrow&quot;:&quot;none&quot;,&quot;endArrow&quot;:&quot;none&quot;,&quot;segment&quot;:10,&quot;curved&quot;:1,&quot;sourcePerimeterSpacing&quot;:0,&quot;targetPerimeterSpacing&quot;:0};rounded=1;" parent="la78TpVZs18s7smpZ9RU-157" vertex="1">
          <mxGeometry x="160" y="60" width="100" height="40" as="geometry" />
        </mxCell>
        <mxCell id="la78TpVZs18s7smpZ9RU-163" value="İşlem" style="whiteSpace=wrap;html=1;rounded=1;arcSize=50;align=center;verticalAlign=middle;strokeWidth=1;autosize=1;spacing=4;treeFolding=1;treeMoving=1;newEdgeStyle={&quot;edgeStyle&quot;:&quot;entityRelationEdgeStyle&quot;,&quot;startArrow&quot;:&quot;none&quot;,&quot;endArrow&quot;:&quot;none&quot;,&quot;segment&quot;:10,&quot;curved&quot;:1,&quot;sourcePerimeterSpacing&quot;:0,&quot;targetPerimeterSpacing&quot;:0};" parent="la78TpVZs18s7smpZ9RU-157" vertex="1">
          <mxGeometry x="321" y="35" width="70" height="30" as="geometry" />
        </mxCell>
        <mxCell id="la78TpVZs18s7smpZ9RU-164" value="Eğitim" style="whiteSpace=wrap;html=1;shape=partialRectangle;top=0;left=0;bottom=1;right=0;points=[[0,1],[1,1]];fillColor=none;align=center;verticalAlign=bottom;routingCenterY=0.5;snapToPoint=1;autosize=1;treeFolding=1;treeMoving=1;newEdgeStyle={&quot;edgeStyle&quot;:&quot;entityRelationEdgeStyle&quot;,&quot;startArrow&quot;:&quot;none&quot;,&quot;endArrow&quot;:&quot;none&quot;,&quot;segment&quot;:10,&quot;curved&quot;:1,&quot;sourcePerimeterSpacing&quot;:0,&quot;targetPerimeterSpacing&quot;:0};rounded=1;" parent="la78TpVZs18s7smpZ9RU-157" vertex="1">
          <mxGeometry x="321" y="76" width="70" height="30" as="geometry" />
        </mxCell>
        <mxCell id="la78TpVZs18s7smpZ9RU-165" value="Pörtföy" style="whiteSpace=wrap;html=1;rounded=1;arcSize=50;align=center;verticalAlign=middle;strokeWidth=1;autosize=1;spacing=4;treeFolding=1;treeMoving=1;newEdgeStyle={&quot;edgeStyle&quot;:&quot;entityRelationEdgeStyle&quot;,&quot;startArrow&quot;:&quot;none&quot;,&quot;endArrow&quot;:&quot;none&quot;,&quot;segment&quot;:10,&quot;curved&quot;:1,&quot;sourcePerimeterSpacing&quot;:0,&quot;targetPerimeterSpacing&quot;:0};" parent="la78TpVZs18s7smpZ9RU-157" vertex="1">
          <mxGeometry x="20" y="35" width="80" height="30" as="geometry" />
        </mxCell>
        <mxCell id="la78TpVZs18s7smpZ9RU-166" value="Sıralama" style="whiteSpace=wrap;html=1;shape=partialRectangle;top=0;left=0;bottom=1;right=0;points=[[0,1],[1,1]];fillColor=none;align=center;verticalAlign=bottom;routingCenterY=0.5;snapToPoint=1;autosize=1;treeFolding=1;treeMoving=1;newEdgeStyle={&quot;edgeStyle&quot;:&quot;entityRelationEdgeStyle&quot;,&quot;startArrow&quot;:&quot;none&quot;,&quot;endArrow&quot;:&quot;none&quot;,&quot;segment&quot;:10,&quot;curved&quot;:1,&quot;sourcePerimeterSpacing&quot;:0,&quot;targetPerimeterSpacing&quot;:0};rounded=1;" parent="la78TpVZs18s7smpZ9RU-157" vertex="1">
          <mxGeometry x="11" y="76" width="90" height="30" as="geometry" />
        </mxCell>
        <mxCell id="la78TpVZs18s7smpZ9RU-211" style="edgeStyle=orthogonalEdgeStyle;rounded=1;orthogonalLoop=1;jettySize=auto;html=1;entryX=0;entryY=0.7;entryDx=0;entryDy=0;" parent="1" source="la78TpVZs18s7smpZ9RU-123" target="la78TpVZs18s7smpZ9RU-209" edge="1">
          <mxGeometry relative="1" as="geometry" />
        </mxCell>
        <mxCell id="la78TpVZs18s7smpZ9RU-123" value="Transactions (İşlemler)" style="shape=table;startSize=30;container=1;collapsible=1;childLayout=tableLayout;fixedRows=1;rowLines=0;fontStyle=1;align=center;resizeLast=1;html=1;rounded=1;movable=1;resizable=1;rotatable=1;deletable=1;editable=1;locked=0;connectable=1;" parent="1" vertex="1">
          <mxGeometry x="110" y="270" width="164.52" height="290" as="geometry" />
        </mxCell>
        <mxCell id="la78TpVZs18s7smpZ9RU-124" value="" style="shape=tableRow;horizontal=0;startSize=0;swimlaneHead=0;swimlaneBody=0;fillColor=none;collapsible=0;dropTarget=0;points=[[0,0.5],[1,0.5]];portConstraint=eastwest;top=0;left=0;right=0;bottom=1;rounded=1;" parent="la78TpVZs18s7smpZ9RU-123" vertex="1">
          <mxGeometry y="30" width="164.52" height="30" as="geometry" />
        </mxCell>
        <mxCell id="la78TpVZs18s7smpZ9RU-125" value="PK" style="shape=partialRectangle;connectable=0;fillColor=none;top=0;left=0;bottom=0;right=0;fontStyle=1;overflow=hidden;whiteSpace=wrap;html=1;rounded=1;" parent="la78TpVZs18s7smpZ9RU-124" vertex="1">
          <mxGeometry width="29.139784946236432" height="30" as="geometry">
            <mxRectangle width="29.139784946236432" height="30" as="alternateBounds" />
          </mxGeometry>
        </mxCell>
        <mxCell id="la78TpVZs18s7smpZ9RU-126" value="UniqueID" style="shape=partialRectangle;connectable=0;fillColor=none;top=0;left=0;bottom=0;right=0;align=left;spacingLeft=6;fontStyle=5;overflow=hidden;whiteSpace=wrap;html=1;rounded=1;" parent="la78TpVZs18s7smpZ9RU-124" vertex="1">
          <mxGeometry x="29.139784946236432" width="135.38021505376358" height="30" as="geometry">
            <mxRectangle width="135.38021505376358" height="30" as="alternateBounds" />
          </mxGeometry>
        </mxCell>
        <mxCell id="la78TpVZs18s7smpZ9RU-127" value="" style="shape=tableRow;horizontal=0;startSize=0;swimlaneHead=0;swimlaneBody=0;fillColor=none;collapsible=0;dropTarget=0;points=[[0,0.5],[1,0.5]];portConstraint=eastwest;top=0;left=0;right=0;bottom=0;rounded=1;" parent="la78TpVZs18s7smpZ9RU-123" vertex="1">
          <mxGeometry y="60" width="164.52" height="30" as="geometry" />
        </mxCell>
        <mxCell id="la78TpVZs18s7smpZ9RU-128" value="1" style="shape=partialRectangle;connectable=0;fillColor=none;top=0;left=0;bottom=0;right=0;editable=1;overflow=hidden;whiteSpace=wrap;html=1;rounded=1;" parent="la78TpVZs18s7smpZ9RU-127" vertex="1">
          <mxGeometry width="29.139784946236432" height="30" as="geometry">
            <mxRectangle width="29.139784946236432" height="30" as="alternateBounds" />
          </mxGeometry>
        </mxCell>
        <mxCell id="la78TpVZs18s7smpZ9RU-129" value="Trans_ID" style="shape=partialRectangle;connectable=0;fillColor=none;top=0;left=0;bottom=0;right=0;align=left;spacingLeft=6;overflow=hidden;whiteSpace=wrap;html=1;rounded=1;" parent="la78TpVZs18s7smpZ9RU-127" vertex="1">
          <mxGeometry x="29.139784946236432" width="135.38021505376358" height="30" as="geometry">
            <mxRectangle width="135.38021505376358" height="30" as="alternateBounds" />
          </mxGeometry>
        </mxCell>
        <mxCell id="la78TpVZs18s7smpZ9RU-130" value="" style="shape=tableRow;horizontal=0;startSize=0;swimlaneHead=0;swimlaneBody=0;fillColor=none;collapsible=0;dropTarget=0;points=[[0,0.5],[1,0.5]];portConstraint=eastwest;top=0;left=0;right=0;bottom=0;rounded=1;" parent="la78TpVZs18s7smpZ9RU-123" vertex="1">
          <mxGeometry y="90" width="164.52" height="30" as="geometry" />
        </mxCell>
        <mxCell id="la78TpVZs18s7smpZ9RU-131" value="2" style="shape=partialRectangle;connectable=0;fillColor=none;top=0;left=0;bottom=0;right=0;editable=1;overflow=hidden;whiteSpace=wrap;html=1;rounded=1;" parent="la78TpVZs18s7smpZ9RU-130" vertex="1">
          <mxGeometry width="29.139784946236432" height="30" as="geometry">
            <mxRectangle width="29.139784946236432" height="30" as="alternateBounds" />
          </mxGeometry>
        </mxCell>
        <mxCell id="la78TpVZs18s7smpZ9RU-132" value="user_Hash" style="shape=partialRectangle;connectable=0;fillColor=none;top=0;left=0;bottom=0;right=0;align=left;spacingLeft=6;overflow=hidden;whiteSpace=wrap;html=1;rounded=1;" parent="la78TpVZs18s7smpZ9RU-130" vertex="1">
          <mxGeometry x="29.139784946236432" width="135.38021505376358" height="30" as="geometry">
            <mxRectangle width="135.38021505376358" height="30" as="alternateBounds" />
          </mxGeometry>
        </mxCell>
        <mxCell id="la78TpVZs18s7smpZ9RU-133" value="" style="shape=tableRow;horizontal=0;startSize=0;swimlaneHead=0;swimlaneBody=0;fillColor=none;collapsible=0;dropTarget=0;points=[[0,0.5],[1,0.5]];portConstraint=eastwest;top=0;left=0;right=0;bottom=0;rounded=1;" parent="la78TpVZs18s7smpZ9RU-123" vertex="1">
          <mxGeometry y="120" width="164.52" height="30" as="geometry" />
        </mxCell>
        <mxCell id="la78TpVZs18s7smpZ9RU-134" value="3" style="shape=partialRectangle;connectable=0;fillColor=none;top=0;left=0;bottom=0;right=0;editable=1;overflow=hidden;whiteSpace=wrap;html=1;rounded=1;" parent="la78TpVZs18s7smpZ9RU-133" vertex="1">
          <mxGeometry width="29.139784946236432" height="30" as="geometry">
            <mxRectangle width="29.139784946236432" height="30" as="alternateBounds" />
          </mxGeometry>
        </mxCell>
        <mxCell id="la78TpVZs18s7smpZ9RU-135" value="transaction_type" style="shape=partialRectangle;connectable=0;fillColor=none;top=0;left=0;bottom=0;right=0;align=left;spacingLeft=6;overflow=hidden;whiteSpace=wrap;html=1;rounded=1;" parent="la78TpVZs18s7smpZ9RU-133" vertex="1">
          <mxGeometry x="29.139784946236432" width="135.38021505376358" height="30" as="geometry">
            <mxRectangle width="135.38021505376358" height="30" as="alternateBounds" />
          </mxGeometry>
        </mxCell>
        <mxCell id="la78TpVZs18s7smpZ9RU-138" value="price" style="shape=partialRectangle;connectable=0;fillColor=none;top=0;left=0;bottom=0;right=0;align=left;spacingLeft=6;overflow=hidden;whiteSpace=wrap;html=1;rounded=1;" parent="1" vertex="1">
          <mxGeometry x="137.4195698924731" y="455.04763358778627" width="137.09677419354836" height="34.58015267175573" as="geometry">
            <mxRectangle width="150" height="30" as="alternateBounds" />
          </mxGeometry>
        </mxCell>
        <mxCell id="la78TpVZs18s7smpZ9RU-139" value="5" style="shape=partialRectangle;connectable=0;fillColor=none;top=0;left=0;bottom=0;right=0;editable=1;overflow=hidden;whiteSpace=wrap;html=1;rounded=1;" parent="1" vertex="1">
          <mxGeometry x="110.00021505376345" y="455.04763358778627" width="27.419354838709676" height="34.58015267175573" as="geometry">
            <mxRectangle width="30" height="30" as="alternateBounds" />
          </mxGeometry>
        </mxCell>
        <mxCell id="la78TpVZs18s7smpZ9RU-140" value="6" style="shape=partialRectangle;connectable=0;fillColor=none;top=0;left=0;bottom=0;right=0;editable=1;overflow=hidden;whiteSpace=wrap;html=1;rounded=1;" parent="1" vertex="1">
          <mxGeometry x="110.00021505376345" y="489.62778625954195" width="27.419354838709676" height="34.58015267175573" as="geometry">
            <mxRectangle width="30" height="30" as="alternateBounds" />
          </mxGeometry>
        </mxCell>
        <mxCell id="la78TpVZs18s7smpZ9RU-141" value="total" style="shape=partialRectangle;connectable=0;fillColor=none;top=0;left=0;bottom=0;right=0;align=left;spacingLeft=6;overflow=hidden;whiteSpace=wrap;html=1;rounded=1;" parent="1" vertex="1">
          <mxGeometry x="137.4195698924731" y="489.62778625954195" width="137.09677419354836" height="34.58015267175573" as="geometry">
            <mxRectangle width="150" height="30" as="alternateBounds" />
          </mxGeometry>
        </mxCell>
        <mxCell id="la78TpVZs18s7smpZ9RU-137" value="quantity" style="shape=partialRectangle;connectable=0;fillColor=none;top=0;left=0;bottom=0;right=0;align=left;spacingLeft=6;overflow=hidden;whiteSpace=wrap;html=1;rounded=1;" parent="1" vertex="1">
          <mxGeometry x="137.4195698924731" y="420.4674809160305" width="137.09677419354836" height="34.58015267175573" as="geometry">
            <mxRectangle width="150" height="30" as="alternateBounds" />
          </mxGeometry>
        </mxCell>
        <mxCell id="la78TpVZs18s7smpZ9RU-136" value="4" style="shape=partialRectangle;connectable=0;fillColor=none;top=0;left=0;bottom=0;right=0;editable=1;overflow=hidden;whiteSpace=wrap;html=1;rounded=1;" parent="1" vertex="1">
          <mxGeometry x="110.00021505376345" y="420.4674809160305" width="27.419354838709676" height="34.58015267175573" as="geometry">
            <mxRectangle width="30" height="30" as="alternateBounds" />
          </mxGeometry>
        </mxCell>
        <mxCell id="la78TpVZs18s7smpZ9RU-167" value="7" style="text;html=1;align=center;verticalAlign=middle;resizable=0;points=[];autosize=1;strokeColor=none;fillColor=none;" parent="1" vertex="1">
          <mxGeometry x="110" y="524.21" width="30" height="30" as="geometry" />
        </mxCell>
        <mxCell id="la78TpVZs18s7smpZ9RU-168" value="timestamp" style="shape=partialRectangle;connectable=0;fillColor=none;top=0;left=0;bottom=0;right=0;align=left;spacingLeft=6;overflow=hidden;whiteSpace=wrap;html=1;rounded=1;" parent="1" vertex="1">
          <mxGeometry x="137.4195698924731" y="519.627786259542" width="137.09677419354836" height="34.58015267175573" as="geometry">
            <mxRectangle width="150" height="30" as="alternateBounds" />
          </mxGeometry>
        </mxCell>
        <mxCell id="la78TpVZs18s7smpZ9RU-184" value="quantity" style="shape=partialRectangle;connectable=0;fillColor=none;top=0;left=0;bottom=0;right=0;align=left;spacingLeft=6;overflow=hidden;whiteSpace=wrap;html=1;rounded=1;" parent="1" vertex="1">
          <mxGeometry x="309.99956989247306" y="420.4676335877863" width="137.09677419354836" height="34.58015267175573" as="geometry">
            <mxRectangle width="150" height="30" as="alternateBounds" />
          </mxGeometry>
        </mxCell>
        <mxCell id="la78TpVZs18s7smpZ9RU-185" value="4" style="shape=partialRectangle;connectable=0;fillColor=none;top=0;left=0;bottom=0;right=0;editable=1;overflow=hidden;whiteSpace=wrap;html=1;rounded=1;" parent="1" vertex="1">
          <mxGeometry x="282.5802150537634" y="420.4676335877863" width="27.419354838709676" height="34.58015267175573" as="geometry">
            <mxRectangle width="30" height="30" as="alternateBounds" />
          </mxGeometry>
        </mxCell>
        <mxCell id="la78TpVZs18s7smpZ9RU-186" value="average_price" style="shape=partialRectangle;connectable=0;fillColor=none;top=0;left=0;bottom=0;right=0;align=left;spacingLeft=6;overflow=hidden;whiteSpace=wrap;html=1;rounded=1;" parent="1" vertex="1">
          <mxGeometry x="309.99956989247306" y="455.0476335877863" width="137.09677419354836" height="34.58015267175573" as="geometry">
            <mxRectangle width="150" height="30" as="alternateBounds" />
          </mxGeometry>
        </mxCell>
        <mxCell id="la78TpVZs18s7smpZ9RU-187" value="5" style="shape=partialRectangle;connectable=0;fillColor=none;top=0;left=0;bottom=0;right=0;editable=1;overflow=hidden;whiteSpace=wrap;html=1;rounded=1;" parent="1" vertex="1">
          <mxGeometry x="282.5802150537635" y="455.04763358778627" width="27.419354838709676" height="34.58015267175573" as="geometry">
            <mxRectangle width="30" height="30" as="alternateBounds" />
          </mxGeometry>
        </mxCell>
        <mxCell id="la78TpVZs18s7smpZ9RU-188" value="total_invesment" style="shape=partialRectangle;connectable=0;fillColor=none;top=0;left=0;bottom=0;right=0;align=left;spacingLeft=6;overflow=hidden;whiteSpace=wrap;html=1;rounded=1;" parent="1" vertex="1">
          <mxGeometry x="309.99956989247306" y="489.62763358778625" width="137.09677419354836" height="34.58015267175573" as="geometry">
            <mxRectangle width="150" height="30" as="alternateBounds" />
          </mxGeometry>
        </mxCell>
        <mxCell id="la78TpVZs18s7smpZ9RU-189" value="6" style="shape=partialRectangle;connectable=0;fillColor=none;top=0;left=0;bottom=0;right=0;editable=1;overflow=hidden;whiteSpace=wrap;html=1;rounded=1;" parent="1" vertex="1">
          <mxGeometry x="282.5802150537634" y="485.04763358778627" width="27.419354838709676" height="34.58015267175573" as="geometry">
            <mxRectangle width="30" height="30" as="alternateBounds" />
          </mxGeometry>
        </mxCell>
        <mxCell id="la78TpVZs18s7smpZ9RU-209" value="Database" style="shape=cylinder;whiteSpace=wrap;html=1;boundedLbl=1;backgroundOutline=1;rounded=1;" parent="1" vertex="1">
          <mxGeometry x="266.29" y="79.99999999999999" width="60" height="80" as="geometry" />
        </mxCell>
        <mxCell id="la78TpVZs18s7smpZ9RU-210" style="edgeStyle=orthogonalEdgeStyle;rounded=1;orthogonalLoop=1;jettySize=auto;html=1;entryX=0;entryY=0.5;entryDx=0;entryDy=0;" parent="1" source="la78TpVZs18s7smpZ9RU-66" target="la78TpVZs18s7smpZ9RU-209" edge="1">
          <mxGeometry relative="1" as="geometry">
            <mxPoint x="50" y="100" as="targetPoint" />
            <Array as="points">
              <mxPoint x="50" y="705" />
              <mxPoint x="50" y="120" />
            </Array>
          </mxGeometry>
        </mxCell>
        <mxCell id="la78TpVZs18s7smpZ9RU-231" value="PorfolioController" style="swimlane;horizontal=0;whiteSpace=wrap;html=1;rounded=1;" parent="1" vertex="1">
          <mxGeometry x="610" y="570" width="550" height="290" as="geometry" />
        </mxCell>
        <mxCell id="q8q3oEfRorzwaX2kdPTE-78" value="Portfolio" style="swimlane;fontStyle=0;childLayout=stackLayout;horizontal=1;startSize=26;fillColor=none;horizontalStack=0;resizeParent=1;resizeParentMax=0;resizeLast=0;collapsible=1;marginBottom=0;whiteSpace=wrap;html=1;" parent="la78TpVZs18s7smpZ9RU-231" vertex="1">
          <mxGeometry x="30" y="10" width="200" height="182" as="geometry" />
        </mxCell>
        <mxCell id="q8q3oEfRorzwaX2kdPTE-79" value="-userId: int" style="text;strokeColor=none;fillColor=none;align=left;verticalAlign=top;spacingLeft=4;spacingRight=4;overflow=hidden;rotatable=0;points=[[0,0.5],[1,0.5]];portConstraint=eastwest;whiteSpace=wrap;html=1;" parent="q8q3oEfRorzwaX2kdPTE-78" vertex="1">
          <mxGeometry y="26" width="200" height="26" as="geometry" />
        </mxCell>
        <mxCell id="q8q3oEfRorzwaX2kdPTE-80" value=" -assets: List&amp;lt;Asset&amp;gt;" style="text;strokeColor=none;fillColor=none;align=left;verticalAlign=top;spacingLeft=4;spacingRight=4;overflow=hidden;rotatable=0;points=[[0,0.5],[1,0.5]];portConstraint=eastwest;whiteSpace=wrap;html=1;" parent="q8q3oEfRorzwaX2kdPTE-78" vertex="1">
          <mxGeometry y="52" width="200" height="26" as="geometry" />
        </mxCell>
        <mxCell id="q8q3oEfRorzwaX2kdPTE-87" value="+getUserId(): int" style="text;strokeColor=none;fillColor=none;align=left;verticalAlign=top;spacingLeft=4;spacingRight=4;overflow=hidden;rotatable=0;points=[[0,0.5],[1,0.5]];portConstraint=eastwest;whiteSpace=wrap;html=1;" parent="q8q3oEfRorzwaX2kdPTE-78" vertex="1">
          <mxGeometry y="78" width="200" height="26" as="geometry" />
        </mxCell>
        <mxCell id="q8q3oEfRorzwaX2kdPTE-85" value="+getAssets(): List&amp;lt;Asset&amp;gt;" style="text;strokeColor=none;fillColor=none;align=left;verticalAlign=top;spacingLeft=4;spacingRight=4;overflow=hidden;rotatable=0;points=[[0,0.5],[1,0.5]];portConstraint=eastwest;whiteSpace=wrap;html=1;" parent="q8q3oEfRorzwaX2kdPTE-78" vertex="1">
          <mxGeometry y="104" width="200" height="26" as="geometry" />
        </mxCell>
        <mxCell id="q8q3oEfRorzwaX2kdPTE-86" value=" +addAsset(asset: Asset): void" style="text;strokeColor=none;fillColor=none;align=left;verticalAlign=top;spacingLeft=4;spacingRight=4;overflow=hidden;rotatable=0;points=[[0,0.5],[1,0.5]];portConstraint=eastwest;whiteSpace=wrap;html=1;" parent="q8q3oEfRorzwaX2kdPTE-78" vertex="1">
          <mxGeometry y="130" width="200" height="26" as="geometry" />
        </mxCell>
        <mxCell id="q8q3oEfRorzwaX2kdPTE-84" value="+removeAsset(asset: Asset): void" style="text;strokeColor=none;fillColor=none;align=left;verticalAlign=top;spacingLeft=4;spacingRight=4;overflow=hidden;rotatable=0;points=[[0,0.5],[1,0.5]];portConstraint=eastwest;whiteSpace=wrap;html=1;" parent="q8q3oEfRorzwaX2kdPTE-78" vertex="1">
          <mxGeometry y="156" width="200" height="26" as="geometry" />
        </mxCell>
        <mxCell id="q8q3oEfRorzwaX2kdPTE-89" value="Asset" style="swimlane;fontStyle=0;childLayout=stackLayout;horizontal=1;startSize=26;fillColor=none;horizontalStack=0;resizeParent=1;resizeParentMax=0;resizeLast=0;collapsible=1;marginBottom=0;whiteSpace=wrap;html=1;" parent="la78TpVZs18s7smpZ9RU-231" vertex="1">
          <mxGeometry x="240" y="9" width="300" height="260" as="geometry" />
        </mxCell>
        <mxCell id="q8q3oEfRorzwaX2kdPTE-90" value="-assetId: int" style="text;strokeColor=none;fillColor=none;align=left;verticalAlign=top;spacingLeft=4;spacingRight=4;overflow=hidden;rotatable=0;points=[[0,0.5],[1,0.5]];portConstraint=eastwest;whiteSpace=wrap;html=1;" parent="q8q3oEfRorzwaX2kdPTE-89" vertex="1">
          <mxGeometry y="26" width="300" height="26" as="geometry" />
        </mxCell>
        <mxCell id="q8q3oEfRorzwaX2kdPTE-91" value="-quantity: float" style="text;strokeColor=none;fillColor=none;align=left;verticalAlign=top;spacingLeft=4;spacingRight=4;overflow=hidden;rotatable=0;points=[[0,0.5],[1,0.5]];portConstraint=eastwest;whiteSpace=wrap;html=1;" parent="q8q3oEfRorzwaX2kdPTE-89" vertex="1">
          <mxGeometry y="52" width="300" height="26" as="geometry" />
        </mxCell>
        <mxCell id="q8q3oEfRorzwaX2kdPTE-92" value="-purchasePrice: float" style="text;strokeColor=none;fillColor=none;align=left;verticalAlign=top;spacingLeft=4;spacingRight=4;overflow=hidden;rotatable=0;points=[[0,0.5],[1,0.5]];portConstraint=eastwest;whiteSpace=wrap;html=1;" parent="q8q3oEfRorzwaX2kdPTE-89" vertex="1">
          <mxGeometry y="78" width="300" height="26" as="geometry" />
        </mxCell>
        <mxCell id="q8q3oEfRorzwaX2kdPTE-93" value="+getAssetId(): int" style="text;strokeColor=none;fillColor=none;align=left;verticalAlign=top;spacingLeft=4;spacingRight=4;overflow=hidden;rotatable=0;points=[[0,0.5],[1,0.5]];portConstraint=eastwest;whiteSpace=wrap;html=1;" parent="q8q3oEfRorzwaX2kdPTE-89" vertex="1">
          <mxGeometry y="104" width="300" height="26" as="geometry" />
        </mxCell>
        <mxCell id="q8q3oEfRorzwaX2kdPTE-97" value="+setQuantity(quantity: float): void" style="text;strokeColor=none;fillColor=none;align=left;verticalAlign=top;spacingLeft=4;spacingRight=4;overflow=hidden;rotatable=0;points=[[0,0.5],[1,0.5]];portConstraint=eastwest;whiteSpace=wrap;html=1;" parent="q8q3oEfRorzwaX2kdPTE-89" vertex="1">
          <mxGeometry y="130" width="300" height="26" as="geometry" />
        </mxCell>
        <mxCell id="q8q3oEfRorzwaX2kdPTE-94" value="+getQuantity(): float" style="text;strokeColor=none;fillColor=none;align=left;verticalAlign=top;spacingLeft=4;spacingRight=4;overflow=hidden;rotatable=0;points=[[0,0.5],[1,0.5]];portConstraint=eastwest;whiteSpace=wrap;html=1;" parent="q8q3oEfRorzwaX2kdPTE-89" vertex="1">
          <mxGeometry y="156" width="300" height="26" as="geometry" />
        </mxCell>
        <mxCell id="q8q3oEfRorzwaX2kdPTE-95" value="+getPurchasePrice(): float" style="text;strokeColor=none;fillColor=none;align=left;verticalAlign=top;spacingLeft=4;spacingRight=4;overflow=hidden;rotatable=0;points=[[0,0.5],[1,0.5]];portConstraint=eastwest;whiteSpace=wrap;html=1;" parent="q8q3oEfRorzwaX2kdPTE-89" vertex="1">
          <mxGeometry y="182" width="300" height="26" as="geometry" />
        </mxCell>
        <mxCell id="q8q3oEfRorzwaX2kdPTE-98" value="+setPurchasePrice(purchasePrice: float): void&lt;br&gt;" style="text;strokeColor=none;fillColor=none;align=left;verticalAlign=top;spacingLeft=4;spacingRight=4;overflow=hidden;rotatable=0;points=[[0,0.5],[1,0.5]];portConstraint=eastwest;whiteSpace=wrap;html=1;" parent="q8q3oEfRorzwaX2kdPTE-89" vertex="1">
          <mxGeometry y="208" width="300" height="26" as="geometry" />
        </mxCell>
        <mxCell id="q8q3oEfRorzwaX2kdPTE-96" value="+setQuantity(quantity: float): void" style="text;strokeColor=none;fillColor=none;align=left;verticalAlign=top;spacingLeft=4;spacingRight=4;overflow=hidden;rotatable=0;points=[[0,0.5],[1,0.5]];portConstraint=eastwest;whiteSpace=wrap;html=1;" parent="q8q3oEfRorzwaX2kdPTE-89" vertex="1">
          <mxGeometry y="234" width="300" height="26" as="geometry" />
        </mxCell>
        <mxCell id="la78TpVZs18s7smpZ9RU-233" style="edgeStyle=orthogonalEdgeStyle;rounded=1;orthogonalLoop=1;jettySize=auto;html=1;entryX=0.001;entryY=0.593;entryDx=0;entryDy=0;entryPerimeter=0;exitX=1;exitY=0.5;exitDx=0;exitDy=0;" parent="1" source="la78TpVZs18s7smpZ9RU-66" target="la78TpVZs18s7smpZ9RU-111" edge="1">
          <mxGeometry relative="1" as="geometry">
            <Array as="points">
              <mxPoint x="275" y="700" />
              <mxPoint x="500" y="700" />
              <mxPoint x="500" y="412" />
            </Array>
          </mxGeometry>
        </mxCell>
        <mxCell id="q8q3oEfRorzwaX2kdPTE-35" value="&lt;h3 style=&quot;border: 0px solid rgb(217, 217, 227); box-sizing: border-box; --tw-border-spacing-x: 0; --tw-border-spacing-y: 0; --tw-translate-x: 0; --tw-translate-y: 0; --tw-rotate: 0; --tw-skew-x: 0; --tw-skew-y: 0; --tw-scale-x: 1; --tw-scale-y: 1; --tw-pan-x: ; --tw-pan-y: ; --tw-pinch-zoom: ; --tw-scroll-snap-strictness: proximity; --tw-gradient-from-position: ; --tw-gradient-via-position: ; --tw-gradient-to-position: ; --tw-ordinal: ; --tw-slashed-zero: ; --tw-numeric-figure: ; --tw-numeric-spacing: ; --tw-numeric-fraction: ; --tw-ring-inset: ; --tw-ring-offset-width: 0px; --tw-ring-offset-color: #fff; --tw-ring-color: rgba(69,89,164,.5); --tw-ring-offset-shadow: 0 0 transparent; --tw-ring-shadow: 0 0 transparent; --tw-shadow: 0 0 transparent; --tw-shadow-colored: 0 0 transparent; --tw-blur: ; --tw-brightness: ; --tw-contrast: ; --tw-grayscale: ; --tw-hue-rotate: ; --tw-invert: ; --tw-saturate: ; --tw-sepia: ; --tw-drop-shadow: ; --tw-backdrop-blur: ; --tw-backdrop-brightness: ; --tw-backdrop-contrast: ; --tw-backdrop-grayscale: ; --tw-backdrop-hue-rotate: ; --tw-backdrop-invert: ; --tw-backdrop-opacity: ; --tw-backdrop-saturate: ; --tw-backdrop-sepia: ; margin: 1rem 0px 0.5rem; line-height: 160%; color: var(--text-primary); font-family: Söhne, ui-sans-serif, system-ui, -apple-system, &amp;quot;Segoe UI&amp;quot;, Roboto, Ubuntu, Cantarell, &amp;quot;Noto Sans&amp;quot;, sans-serif, &amp;quot;Helvetica Neue&amp;quot;, Arial, &amp;quot;Apple Color Emoji&amp;quot;, &amp;quot;Segoe UI Emoji&amp;quot;, &amp;quot;Segoe UI Symbol&amp;quot;, &amp;quot;Noto Color Emoji&amp;quot;; text-align: start;&quot;&gt;&lt;font style=&quot;font-size: 7px; background-color: rgb(255, 255, 255);&quot;&gt;Varlıklar (Hisse Senetleri, Kripto Paralar) Tablosu&lt;/font&gt;&lt;/h3&gt;" style="shape=table;startSize=30;container=1;collapsible=1;childLayout=tableLayout;fixedRows=1;rowLines=0;fontStyle=1;align=center;resizeLast=1;html=1;rounded=1;" parent="1" vertex="1">
          <mxGeometry x="288.55" y="570" width="180" height="210" as="geometry" />
        </mxCell>
        <mxCell id="q8q3oEfRorzwaX2kdPTE-36" value="" style="shape=tableRow;horizontal=0;startSize=0;swimlaneHead=0;swimlaneBody=0;fillColor=none;collapsible=0;dropTarget=0;points=[[0,0.5],[1,0.5]];portConstraint=eastwest;top=0;left=0;right=0;bottom=1;rounded=1;" parent="q8q3oEfRorzwaX2kdPTE-35" vertex="1">
          <mxGeometry y="30" width="180" height="30" as="geometry" />
        </mxCell>
        <mxCell id="q8q3oEfRorzwaX2kdPTE-37" value="PK" style="shape=partialRectangle;connectable=0;fillColor=none;top=0;left=0;bottom=0;right=0;fontStyle=1;overflow=hidden;whiteSpace=wrap;html=1;rounded=1;" parent="q8q3oEfRorzwaX2kdPTE-36" vertex="1">
          <mxGeometry width="31.450000000000045" height="30" as="geometry">
            <mxRectangle width="31.450000000000045" height="30" as="alternateBounds" />
          </mxGeometry>
        </mxCell>
        <mxCell id="q8q3oEfRorzwaX2kdPTE-38" value="UniqueID" style="shape=partialRectangle;connectable=0;fillColor=none;top=0;left=0;bottom=0;right=0;align=left;spacingLeft=6;fontStyle=5;overflow=hidden;whiteSpace=wrap;html=1;rounded=1;" parent="q8q3oEfRorzwaX2kdPTE-36" vertex="1">
          <mxGeometry x="31.450000000000045" width="148.54999999999995" height="30" as="geometry">
            <mxRectangle width="148.54999999999995" height="30" as="alternateBounds" />
          </mxGeometry>
        </mxCell>
        <mxCell id="q8q3oEfRorzwaX2kdPTE-39" value="" style="shape=tableRow;horizontal=0;startSize=0;swimlaneHead=0;swimlaneBody=0;fillColor=none;collapsible=0;dropTarget=0;points=[[0,0.5],[1,0.5]];portConstraint=eastwest;top=0;left=0;right=0;bottom=0;rounded=1;" parent="q8q3oEfRorzwaX2kdPTE-35" vertex="1">
          <mxGeometry y="60" width="180" height="30" as="geometry" />
        </mxCell>
        <mxCell id="q8q3oEfRorzwaX2kdPTE-40" value="1" style="shape=partialRectangle;connectable=0;fillColor=none;top=0;left=0;bottom=0;right=0;editable=1;overflow=hidden;whiteSpace=wrap;html=1;rounded=1;" parent="q8q3oEfRorzwaX2kdPTE-39" vertex="1">
          <mxGeometry width="31.450000000000045" height="30" as="geometry">
            <mxRectangle width="31.450000000000045" height="30" as="alternateBounds" />
          </mxGeometry>
        </mxCell>
        <mxCell id="q8q3oEfRorzwaX2kdPTE-41" value="ID" style="shape=partialRectangle;connectable=0;fillColor=none;top=0;left=0;bottom=0;right=0;align=left;spacingLeft=6;overflow=hidden;whiteSpace=wrap;html=1;rounded=1;" parent="q8q3oEfRorzwaX2kdPTE-39" vertex="1">
          <mxGeometry x="31.450000000000045" width="148.54999999999995" height="30" as="geometry">
            <mxRectangle width="148.54999999999995" height="30" as="alternateBounds" />
          </mxGeometry>
        </mxCell>
        <mxCell id="q8q3oEfRorzwaX2kdPTE-42" value="" style="shape=tableRow;horizontal=0;startSize=0;swimlaneHead=0;swimlaneBody=0;fillColor=none;collapsible=0;dropTarget=0;points=[[0,0.5],[1,0.5]];portConstraint=eastwest;top=0;left=0;right=0;bottom=0;rounded=1;" parent="q8q3oEfRorzwaX2kdPTE-35" vertex="1">
          <mxGeometry y="90" width="180" height="30" as="geometry" />
        </mxCell>
        <mxCell id="q8q3oEfRorzwaX2kdPTE-43" value="2" style="shape=partialRectangle;connectable=0;fillColor=none;top=0;left=0;bottom=0;right=0;editable=1;overflow=hidden;whiteSpace=wrap;html=1;rounded=1;" parent="q8q3oEfRorzwaX2kdPTE-42" vertex="1">
          <mxGeometry width="31.450000000000045" height="30" as="geometry">
            <mxRectangle width="31.450000000000045" height="30" as="alternateBounds" />
          </mxGeometry>
        </mxCell>
        <mxCell id="q8q3oEfRorzwaX2kdPTE-44" value="name" style="shape=partialRectangle;connectable=0;fillColor=none;top=0;left=0;bottom=0;right=0;align=left;spacingLeft=6;overflow=hidden;whiteSpace=wrap;html=1;rounded=1;" parent="q8q3oEfRorzwaX2kdPTE-42" vertex="1">
          <mxGeometry x="31.450000000000045" width="148.54999999999995" height="30" as="geometry">
            <mxRectangle width="148.54999999999995" height="30" as="alternateBounds" />
          </mxGeometry>
        </mxCell>
        <mxCell id="q8q3oEfRorzwaX2kdPTE-45" value="" style="shape=tableRow;horizontal=0;startSize=0;swimlaneHead=0;swimlaneBody=0;fillColor=none;collapsible=0;dropTarget=0;points=[[0,0.5],[1,0.5]];portConstraint=eastwest;top=0;left=0;right=0;bottom=0;rounded=1;" parent="q8q3oEfRorzwaX2kdPTE-35" vertex="1">
          <mxGeometry y="120" width="180" height="30" as="geometry" />
        </mxCell>
        <mxCell id="q8q3oEfRorzwaX2kdPTE-46" value="3" style="shape=partialRectangle;connectable=0;fillColor=none;top=0;left=0;bottom=0;right=0;editable=1;overflow=hidden;whiteSpace=wrap;html=1;rounded=1;" parent="q8q3oEfRorzwaX2kdPTE-45" vertex="1">
          <mxGeometry width="31.450000000000045" height="30" as="geometry">
            <mxRectangle width="31.450000000000045" height="30" as="alternateBounds" />
          </mxGeometry>
        </mxCell>
        <mxCell id="q8q3oEfRorzwaX2kdPTE-47" value="symbol" style="shape=partialRectangle;connectable=0;fillColor=none;top=0;left=0;bottom=0;right=0;align=left;spacingLeft=6;overflow=hidden;whiteSpace=wrap;html=1;rounded=1;" parent="q8q3oEfRorzwaX2kdPTE-45" vertex="1">
          <mxGeometry x="31.450000000000045" width="148.54999999999995" height="30" as="geometry">
            <mxRectangle width="148.54999999999995" height="30" as="alternateBounds" />
          </mxGeometry>
        </mxCell>
        <mxCell id="q8q3oEfRorzwaX2kdPTE-32" value="" style="shape=tableRow;horizontal=0;startSize=0;swimlaneHead=0;swimlaneBody=0;fillColor=none;collapsible=0;dropTarget=0;points=[[0,0.5],[1,0.5]];portConstraint=eastwest;top=0;left=0;right=0;bottom=0;" parent="q8q3oEfRorzwaX2kdPTE-35" vertex="1">
          <mxGeometry y="150" width="180" height="30" as="geometry" />
        </mxCell>
        <mxCell id="q8q3oEfRorzwaX2kdPTE-33" value="4" style="shape=partialRectangle;connectable=0;fillColor=none;top=0;left=0;bottom=0;right=0;fontStyle=0;overflow=hidden;whiteSpace=wrap;html=1;" parent="q8q3oEfRorzwaX2kdPTE-32" vertex="1">
          <mxGeometry width="31.450000000000045" height="30" as="geometry">
            <mxRectangle width="31.450000000000045" height="30" as="alternateBounds" />
          </mxGeometry>
        </mxCell>
        <mxCell id="q8q3oEfRorzwaX2kdPTE-34" value="type" style="shape=partialRectangle;connectable=0;fillColor=none;top=0;left=0;bottom=0;right=0;align=left;spacingLeft=6;fontStyle=0;overflow=hidden;whiteSpace=wrap;html=1;" parent="q8q3oEfRorzwaX2kdPTE-32" vertex="1">
          <mxGeometry x="31.450000000000045" width="148.54999999999995" height="30" as="geometry">
            <mxRectangle width="148.54999999999995" height="30" as="alternateBounds" />
          </mxGeometry>
        </mxCell>
        <mxCell id="q8q3oEfRorzwaX2kdPTE-52" value="" style="shape=tableRow;horizontal=0;startSize=0;swimlaneHead=0;swimlaneBody=0;fillColor=none;collapsible=0;dropTarget=0;points=[[0,0.5],[1,0.5]];portConstraint=eastwest;top=0;left=0;right=0;bottom=0;" parent="q8q3oEfRorzwaX2kdPTE-35" vertex="1">
          <mxGeometry y="180" width="180" height="30" as="geometry" />
        </mxCell>
        <mxCell id="q8q3oEfRorzwaX2kdPTE-53" value="5" style="shape=partialRectangle;connectable=0;fillColor=none;top=0;left=0;bottom=0;right=0;fontStyle=0;overflow=hidden;whiteSpace=wrap;html=1;" parent="q8q3oEfRorzwaX2kdPTE-52" vertex="1">
          <mxGeometry width="31.450000000000045" height="30" as="geometry">
            <mxRectangle width="31.450000000000045" height="30" as="alternateBounds" />
          </mxGeometry>
        </mxCell>
        <mxCell id="q8q3oEfRorzwaX2kdPTE-54" value="current_price" style="shape=partialRectangle;connectable=0;fillColor=none;top=0;left=0;bottom=0;right=0;align=left;spacingLeft=6;fontStyle=0;overflow=hidden;whiteSpace=wrap;html=1;" parent="q8q3oEfRorzwaX2kdPTE-52" vertex="1">
          <mxGeometry x="31.450000000000045" width="148.54999999999995" height="30" as="geometry">
            <mxRectangle width="148.54999999999995" height="30" as="alternateBounds" />
          </mxGeometry>
        </mxCell>
        <mxCell id="S1LUNOR3-U_XrjzdLIpG-33" style="edgeStyle=orthogonalEdgeStyle;rounded=0;orthogonalLoop=1;jettySize=auto;html=1;entryX=0.5;entryY=0;entryDx=0;entryDy=0;" edge="1" parent="1" source="q8q3oEfRorzwaX2kdPTE-55" target="la78TpVZs18s7smpZ9RU-209">
          <mxGeometry relative="1" as="geometry">
            <Array as="points">
              <mxPoint x="363" y="130" />
              <mxPoint x="363" y="20" />
              <mxPoint x="296" y="20" />
            </Array>
          </mxGeometry>
        </mxCell>
        <mxCell id="q8q3oEfRorzwaX2kdPTE-55" value="&lt;h3 style=&quot;border: 0px solid rgb(217, 217, 227); box-sizing: border-box; --tw-border-spacing-x: 0; --tw-border-spacing-y: 0; --tw-translate-x: 0; --tw-translate-y: 0; --tw-rotate: 0; --tw-skew-x: 0; --tw-skew-y: 0; --tw-scale-x: 1; --tw-scale-y: 1; --tw-pan-x: ; --tw-pan-y: ; --tw-pinch-zoom: ; --tw-scroll-snap-strictness: proximity; --tw-gradient-from-position: ; --tw-gradient-via-position: ; --tw-gradient-to-position: ; --tw-ordinal: ; --tw-slashed-zero: ; --tw-numeric-figure: ; --tw-numeric-spacing: ; --tw-numeric-fraction: ; --tw-ring-inset: ; --tw-ring-offset-width: 0px; --tw-ring-offset-color: #fff; --tw-ring-color: rgba(69,89,164,.5); --tw-ring-offset-shadow: 0 0 transparent; --tw-ring-shadow: 0 0 transparent; --tw-shadow: 0 0 transparent; --tw-shadow-colored: 0 0 transparent; --tw-blur: ; --tw-brightness: ; --tw-contrast: ; --tw-grayscale: ; --tw-hue-rotate: ; --tw-invert: ; --tw-saturate: ; --tw-sepia: ; --tw-drop-shadow: ; --tw-backdrop-blur: ; --tw-backdrop-brightness: ; --tw-backdrop-contrast: ; --tw-backdrop-grayscale: ; --tw-backdrop-hue-rotate: ; --tw-backdrop-invert: ; --tw-backdrop-opacity: ; --tw-backdrop-saturate: ; --tw-backdrop-sepia: ; margin: 1rem 0px 0.5rem; line-height: 160%; color: var(--text-primary); font-family: Söhne, ui-sans-serif, system-ui, -apple-system, &amp;quot;Segoe UI&amp;quot;, Roboto, Ubuntu, Cantarell, &amp;quot;Noto Sans&amp;quot;, sans-serif, &amp;quot;Helvetica Neue&amp;quot;, Arial, &amp;quot;Apple Color Emoji&amp;quot;, &amp;quot;Segoe UI Emoji&amp;quot;, &amp;quot;Segoe UI Symbol&amp;quot;, &amp;quot;Noto Color Emoji&amp;quot;; text-align: start;&quot;&gt;&lt;font style=&quot;font-size: 7px; background-color: rgb(255, 255, 255);&quot;&gt;Varlıklar (Hisse Senetleri, Kripto Paralar) Tablosu&lt;/font&gt;&lt;/h3&gt;" style="shape=table;startSize=30;container=1;collapsible=1;childLayout=tableLayout;fixedRows=1;rowLines=0;fontStyle=1;align=center;resizeLast=1;html=1;rounded=1;" parent="1" vertex="1">
          <mxGeometry x="400" y="10" width="180" height="240" as="geometry" />
        </mxCell>
        <mxCell id="q8q3oEfRorzwaX2kdPTE-56" value="" style="shape=tableRow;horizontal=0;startSize=0;swimlaneHead=0;swimlaneBody=0;fillColor=none;collapsible=0;dropTarget=0;points=[[0,0.5],[1,0.5]];portConstraint=eastwest;top=0;left=0;right=0;bottom=1;rounded=1;" parent="q8q3oEfRorzwaX2kdPTE-55" vertex="1">
          <mxGeometry y="30" width="180" height="30" as="geometry" />
        </mxCell>
        <mxCell id="q8q3oEfRorzwaX2kdPTE-57" value="PK" style="shape=partialRectangle;connectable=0;fillColor=none;top=0;left=0;bottom=0;right=0;fontStyle=1;overflow=hidden;whiteSpace=wrap;html=1;rounded=1;" parent="q8q3oEfRorzwaX2kdPTE-56" vertex="1">
          <mxGeometry width="31.450000000000045" height="30" as="geometry">
            <mxRectangle width="31.450000000000045" height="30" as="alternateBounds" />
          </mxGeometry>
        </mxCell>
        <mxCell id="q8q3oEfRorzwaX2kdPTE-58" value="UniqueID" style="shape=partialRectangle;connectable=0;fillColor=none;top=0;left=0;bottom=0;right=0;align=left;spacingLeft=6;fontStyle=5;overflow=hidden;whiteSpace=wrap;html=1;rounded=1;" parent="q8q3oEfRorzwaX2kdPTE-56" vertex="1">
          <mxGeometry x="31.450000000000045" width="148.54999999999995" height="30" as="geometry">
            <mxRectangle width="148.54999999999995" height="30" as="alternateBounds" />
          </mxGeometry>
        </mxCell>
        <mxCell id="q8q3oEfRorzwaX2kdPTE-59" value="" style="shape=tableRow;horizontal=0;startSize=0;swimlaneHead=0;swimlaneBody=0;fillColor=none;collapsible=0;dropTarget=0;points=[[0,0.5],[1,0.5]];portConstraint=eastwest;top=0;left=0;right=0;bottom=0;rounded=1;" parent="q8q3oEfRorzwaX2kdPTE-55" vertex="1">
          <mxGeometry y="60" width="180" height="30" as="geometry" />
        </mxCell>
        <mxCell id="q8q3oEfRorzwaX2kdPTE-60" value="1" style="shape=partialRectangle;connectable=0;fillColor=none;top=0;left=0;bottom=0;right=0;editable=1;overflow=hidden;whiteSpace=wrap;html=1;rounded=1;" parent="q8q3oEfRorzwaX2kdPTE-59" vertex="1">
          <mxGeometry width="31.450000000000045" height="30" as="geometry">
            <mxRectangle width="31.450000000000045" height="30" as="alternateBounds" />
          </mxGeometry>
        </mxCell>
        <mxCell id="q8q3oEfRorzwaX2kdPTE-61" value="ID" style="shape=partialRectangle;connectable=0;fillColor=none;top=0;left=0;bottom=0;right=0;align=left;spacingLeft=6;overflow=hidden;whiteSpace=wrap;html=1;rounded=1;" parent="q8q3oEfRorzwaX2kdPTE-59" vertex="1">
          <mxGeometry x="31.450000000000045" width="148.54999999999995" height="30" as="geometry">
            <mxRectangle width="148.54999999999995" height="30" as="alternateBounds" />
          </mxGeometry>
        </mxCell>
        <mxCell id="q8q3oEfRorzwaX2kdPTE-62" value="" style="shape=tableRow;horizontal=0;startSize=0;swimlaneHead=0;swimlaneBody=0;fillColor=none;collapsible=0;dropTarget=0;points=[[0,0.5],[1,0.5]];portConstraint=eastwest;top=0;left=0;right=0;bottom=0;rounded=1;" parent="q8q3oEfRorzwaX2kdPTE-55" vertex="1">
          <mxGeometry y="90" width="180" height="30" as="geometry" />
        </mxCell>
        <mxCell id="q8q3oEfRorzwaX2kdPTE-63" value="2" style="shape=partialRectangle;connectable=0;fillColor=none;top=0;left=0;bottom=0;right=0;editable=1;overflow=hidden;whiteSpace=wrap;html=1;rounded=1;" parent="q8q3oEfRorzwaX2kdPTE-62" vertex="1">
          <mxGeometry width="31.450000000000045" height="30" as="geometry">
            <mxRectangle width="31.450000000000045" height="30" as="alternateBounds" />
          </mxGeometry>
        </mxCell>
        <mxCell id="q8q3oEfRorzwaX2kdPTE-64" value="asset_id " style="shape=partialRectangle;connectable=0;fillColor=none;top=0;left=0;bottom=0;right=0;align=left;spacingLeft=6;overflow=hidden;whiteSpace=wrap;html=1;rounded=1;" parent="q8q3oEfRorzwaX2kdPTE-62" vertex="1">
          <mxGeometry x="31.450000000000045" width="148.54999999999995" height="30" as="geometry">
            <mxRectangle width="148.54999999999995" height="30" as="alternateBounds" />
          </mxGeometry>
        </mxCell>
        <mxCell id="q8q3oEfRorzwaX2kdPTE-65" value="" style="shape=tableRow;horizontal=0;startSize=0;swimlaneHead=0;swimlaneBody=0;fillColor=none;collapsible=0;dropTarget=0;points=[[0,0.5],[1,0.5]];portConstraint=eastwest;top=0;left=0;right=0;bottom=0;rounded=1;" parent="q8q3oEfRorzwaX2kdPTE-55" vertex="1">
          <mxGeometry y="120" width="180" height="30" as="geometry" />
        </mxCell>
        <mxCell id="q8q3oEfRorzwaX2kdPTE-66" value="3" style="shape=partialRectangle;connectable=0;fillColor=none;top=0;left=0;bottom=0;right=0;editable=1;overflow=hidden;whiteSpace=wrap;html=1;rounded=1;" parent="q8q3oEfRorzwaX2kdPTE-65" vertex="1">
          <mxGeometry width="31.450000000000045" height="30" as="geometry">
            <mxRectangle width="31.450000000000045" height="30" as="alternateBounds" />
          </mxGeometry>
        </mxCell>
        <mxCell id="q8q3oEfRorzwaX2kdPTE-67" value="market_type" style="shape=partialRectangle;connectable=0;fillColor=none;top=0;left=0;bottom=0;right=0;align=left;spacingLeft=6;overflow=hidden;whiteSpace=wrap;html=1;rounded=1;" parent="q8q3oEfRorzwaX2kdPTE-65" vertex="1">
          <mxGeometry x="31.450000000000045" width="148.54999999999995" height="30" as="geometry">
            <mxRectangle width="148.54999999999995" height="30" as="alternateBounds" />
          </mxGeometry>
        </mxCell>
        <mxCell id="q8q3oEfRorzwaX2kdPTE-68" value="" style="shape=tableRow;horizontal=0;startSize=0;swimlaneHead=0;swimlaneBody=0;fillColor=none;collapsible=0;dropTarget=0;points=[[0,0.5],[1,0.5]];portConstraint=eastwest;top=0;left=0;right=0;bottom=0;" parent="q8q3oEfRorzwaX2kdPTE-55" vertex="1">
          <mxGeometry y="150" width="180" height="30" as="geometry" />
        </mxCell>
        <mxCell id="q8q3oEfRorzwaX2kdPTE-69" value="4" style="shape=partialRectangle;connectable=0;fillColor=none;top=0;left=0;bottom=0;right=0;fontStyle=0;overflow=hidden;whiteSpace=wrap;html=1;" parent="q8q3oEfRorzwaX2kdPTE-68" vertex="1">
          <mxGeometry width="31.450000000000045" height="30" as="geometry">
            <mxRectangle width="31.450000000000045" height="30" as="alternateBounds" />
          </mxGeometry>
        </mxCell>
        <mxCell id="q8q3oEfRorzwaX2kdPTE-70" value="price" style="shape=partialRectangle;connectable=0;fillColor=none;top=0;left=0;bottom=0;right=0;align=left;spacingLeft=6;fontStyle=0;overflow=hidden;whiteSpace=wrap;html=1;" parent="q8q3oEfRorzwaX2kdPTE-68" vertex="1">
          <mxGeometry x="31.450000000000045" width="148.54999999999995" height="30" as="geometry">
            <mxRectangle width="148.54999999999995" height="30" as="alternateBounds" />
          </mxGeometry>
        </mxCell>
        <mxCell id="q8q3oEfRorzwaX2kdPTE-75" value="" style="shape=tableRow;horizontal=0;startSize=0;swimlaneHead=0;swimlaneBody=0;fillColor=none;collapsible=0;dropTarget=0;points=[[0,0.5],[1,0.5]];portConstraint=eastwest;top=0;left=0;right=0;bottom=0;" parent="q8q3oEfRorzwaX2kdPTE-55" vertex="1">
          <mxGeometry y="180" width="180" height="30" as="geometry" />
        </mxCell>
        <mxCell id="q8q3oEfRorzwaX2kdPTE-76" value="5" style="shape=partialRectangle;connectable=0;fillColor=none;top=0;left=0;bottom=0;right=0;fontStyle=0;overflow=hidden;whiteSpace=wrap;html=1;" parent="q8q3oEfRorzwaX2kdPTE-75" vertex="1">
          <mxGeometry width="31.450000000000045" height="30" as="geometry">
            <mxRectangle width="31.450000000000045" height="30" as="alternateBounds" />
          </mxGeometry>
        </mxCell>
        <mxCell id="q8q3oEfRorzwaX2kdPTE-77" value="last_updated" style="shape=partialRectangle;connectable=0;fillColor=none;top=0;left=0;bottom=0;right=0;align=left;spacingLeft=6;fontStyle=0;overflow=hidden;whiteSpace=wrap;html=1;" parent="q8q3oEfRorzwaX2kdPTE-75" vertex="1">
          <mxGeometry x="31.450000000000045" width="148.54999999999995" height="30" as="geometry">
            <mxRectangle width="148.54999999999995" height="30" as="alternateBounds" />
          </mxGeometry>
        </mxCell>
        <mxCell id="q8q3oEfRorzwaX2kdPTE-71" value="" style="shape=tableRow;horizontal=0;startSize=0;swimlaneHead=0;swimlaneBody=0;fillColor=none;collapsible=0;dropTarget=0;points=[[0,0.5],[1,0.5]];portConstraint=eastwest;top=0;left=0;right=0;bottom=0;" parent="q8q3oEfRorzwaX2kdPTE-55" vertex="1">
          <mxGeometry y="210" width="180" height="30" as="geometry" />
        </mxCell>
        <mxCell id="q8q3oEfRorzwaX2kdPTE-72" value="6" style="shape=partialRectangle;connectable=0;fillColor=none;top=0;left=0;bottom=0;right=0;fontStyle=0;overflow=hidden;whiteSpace=wrap;html=1;" parent="q8q3oEfRorzwaX2kdPTE-71" vertex="1">
          <mxGeometry width="31.450000000000045" height="30" as="geometry">
            <mxRectangle width="31.450000000000045" height="30" as="alternateBounds" />
          </mxGeometry>
        </mxCell>
        <mxCell id="q8q3oEfRorzwaX2kdPTE-73" value="volume" style="shape=partialRectangle;connectable=0;fillColor=none;top=0;left=0;bottom=0;right=0;align=left;spacingLeft=6;fontStyle=0;overflow=hidden;whiteSpace=wrap;html=1;" parent="q8q3oEfRorzwaX2kdPTE-71" vertex="1">
          <mxGeometry x="31.450000000000045" width="148.54999999999995" height="30" as="geometry">
            <mxRectangle width="148.54999999999995" height="30" as="alternateBounds" />
          </mxGeometry>
        </mxCell>
        <mxCell id="q8q3oEfRorzwaX2kdPTE-88" style="edgeStyle=orthogonalEdgeStyle;rounded=0;orthogonalLoop=1;jettySize=auto;html=1;entryX=0.001;entryY=0.561;entryDx=0;entryDy=0;entryPerimeter=0;" parent="1" source="la78TpVZs18s7smpZ9RU-144" target="la78TpVZs18s7smpZ9RU-231" edge="1">
          <mxGeometry relative="1" as="geometry" />
        </mxCell>
        <mxCell id="S1LUNOR3-U_XrjzdLIpG-21" value="H" style="text;html=1;align=center;verticalAlign=middle;resizable=0;points=[];autosize=1;strokeColor=none;fillColor=none;fontSize=5;" vertex="1" parent="1">
          <mxGeometry x="1320" y="125" width="30" height="20" as="geometry" />
        </mxCell>
        <mxCell id="S1LUNOR3-U_XrjzdLIpG-32" value="" style="group" vertex="1" connectable="0" parent="1">
          <mxGeometry x="610" y="50" width="590" height="200" as="geometry" />
        </mxCell>
        <mxCell id="S1LUNOR3-U_XrjzdLIpG-7" value="Libary" style="shape=folder;fontStyle=1;spacingTop=10;tabWidth=40;tabHeight=14;tabPosition=left;html=1;whiteSpace=wrap;" vertex="1" parent="S1LUNOR3-U_XrjzdLIpG-32">
          <mxGeometry x="10" y="45" width="70" height="50" as="geometry" />
        </mxCell>
        <mxCell id="S1LUNOR3-U_XrjzdLIpG-9" value="Activity" style="rounded=1;whiteSpace=wrap;html=1;arcSize=40;fontColor=#000000;fillColor=#ffffc0;strokeColor=#ff0000;" vertex="1" parent="S1LUNOR3-U_XrjzdLIpG-32">
          <mxGeometry x="230" y="55" width="120" height="40" as="geometry" />
        </mxCell>
        <mxCell id="S1LUNOR3-U_XrjzdLIpG-5" value="dispatch" style="html=1;verticalAlign=bottom;endArrow=block;curved=0;rounded=0;entryX=0.008;entryY=0.438;entryDx=0;entryDy=0;entryPerimeter=0;" edge="1" target="S1LUNOR3-U_XrjzdLIpG-9" parent="S1LUNOR3-U_XrjzdLIpG-32" source="S1LUNOR3-U_XrjzdLIpG-7">
          <mxGeometry relative="1" as="geometry">
            <mxPoint x="140" y="50" as="sourcePoint" />
            <mxPoint x="210" y="50" as="targetPoint" />
          </mxGeometry>
        </mxCell>
        <mxCell id="S1LUNOR3-U_XrjzdLIpG-6" value="return" style="html=1;verticalAlign=bottom;endArrow=open;dashed=1;endSize=8;curved=0;rounded=0;entryX=0;entryY=0;entryDx=70;entryDy=41;entryPerimeter=0;exitX=0;exitY=0.75;exitDx=0;exitDy=0;" edge="1" source="S1LUNOR3-U_XrjzdLIpG-9" parent="S1LUNOR3-U_XrjzdLIpG-32" target="S1LUNOR3-U_XrjzdLIpG-7">
          <mxGeometry relative="1" as="geometry">
            <mxPoint x="140" y="120" as="targetPoint" />
            <mxPoint x="160" y="85" as="sourcePoint" />
          </mxGeometry>
        </mxCell>
        <mxCell id="S1LUNOR3-U_XrjzdLIpG-10" value="" style="edgeStyle=orthogonalEdgeStyle;html=1;verticalAlign=bottom;endArrow=open;endSize=8;strokeColor=#ff0000;rounded=0;exitX=1;exitY=0.5;exitDx=0;exitDy=0;" edge="1" source="S1LUNOR3-U_XrjzdLIpG-9" parent="S1LUNOR3-U_XrjzdLIpG-32">
          <mxGeometry relative="1" as="geometry">
            <mxPoint x="400" y="75" as="targetPoint" />
          </mxGeometry>
        </mxCell>
        <mxCell id="S1LUNOR3-U_XrjzdLIpG-12" value="Engine" style="shape=umlFrame;whiteSpace=wrap;html=1;pointerEvents=0;" vertex="1" parent="S1LUNOR3-U_XrjzdLIpG-32">
          <mxGeometry width="590" height="200" as="geometry" />
        </mxCell>
        <mxCell id="S1LUNOR3-U_XrjzdLIpG-13" value="" style="ellipse;html=1;shape=startState;fillColor=#000000;strokeColor=#ff0000;" vertex="1" parent="S1LUNOR3-U_XrjzdLIpG-32">
          <mxGeometry x="275" y="5" width="30" height="30" as="geometry" />
        </mxCell>
        <mxCell id="S1LUNOR3-U_XrjzdLIpG-14" value="" style="edgeStyle=orthogonalEdgeStyle;html=1;verticalAlign=bottom;endArrow=open;endSize=8;strokeColor=#ff0000;rounded=0;exitX=0.502;exitY=0.864;exitDx=0;exitDy=0;exitPerimeter=0;" edge="1" source="S1LUNOR3-U_XrjzdLIpG-13" parent="S1LUNOR3-U_XrjzdLIpG-32" target="S1LUNOR3-U_XrjzdLIpG-9">
          <mxGeometry relative="1" as="geometry">
            <mxPoint x="290" y="55" as="targetPoint" />
          </mxGeometry>
        </mxCell>
        <mxCell id="S1LUNOR3-U_XrjzdLIpG-17" value="Kullanıcı: Symbol" style="html=1;dashed=0;whiteSpace=wrap;" vertex="1" parent="S1LUNOR3-U_XrjzdLIpG-32">
          <mxGeometry x="400" y="50" width="100" height="50" as="geometry" />
        </mxCell>
        <mxCell id="S1LUNOR3-U_XrjzdLIpG-18" value="Refuse Page" style="html=1;dashed=0;whiteSpace=wrap;shape=mxgraph.dfd.start" vertex="1" parent="S1LUNOR3-U_XrjzdLIpG-32">
          <mxGeometry x="500" y="165" width="80" height="30" as="geometry" />
        </mxCell>
        <mxCell id="S1LUNOR3-U_XrjzdLIpG-19" value="Symbol?" style="shape=rhombus;html=1;dashed=0;whiteSpace=wrap;perimeter=rhombusPerimeter;" vertex="1" parent="S1LUNOR3-U_XrjzdLIpG-32">
          <mxGeometry x="510" y="90" width="60" height="50" as="geometry" />
        </mxCell>
        <mxCell id="S1LUNOR3-U_XrjzdLIpG-20" style="edgeStyle=orthogonalEdgeStyle;rounded=0;orthogonalLoop=1;jettySize=auto;html=1;entryX=0.5;entryY=0;entryDx=0;entryDy=0;" edge="1" parent="S1LUNOR3-U_XrjzdLIpG-32" source="S1LUNOR3-U_XrjzdLIpG-17" target="S1LUNOR3-U_XrjzdLIpG-19">
          <mxGeometry relative="1" as="geometry">
            <Array as="points">
              <mxPoint x="540" y="75" />
            </Array>
          </mxGeometry>
        </mxCell>
        <mxCell id="S1LUNOR3-U_XrjzdLIpG-22" style="edgeStyle=orthogonalEdgeStyle;rounded=0;orthogonalLoop=1;jettySize=auto;html=1;entryX=0.5;entryY=0.5;entryDx=0;entryDy=-15;entryPerimeter=0;" edge="1" parent="S1LUNOR3-U_XrjzdLIpG-32" source="S1LUNOR3-U_XrjzdLIpG-19" target="S1LUNOR3-U_XrjzdLIpG-18">
          <mxGeometry relative="1" as="geometry" />
        </mxCell>
        <mxCell id="S1LUNOR3-U_XrjzdLIpG-25" style="edgeStyle=orthogonalEdgeStyle;rounded=0;orthogonalLoop=1;jettySize=auto;html=1;" edge="1" parent="S1LUNOR3-U_XrjzdLIpG-32" source="S1LUNOR3-U_XrjzdLIpG-19" target="S1LUNOR3-U_XrjzdLIpG-26">
          <mxGeometry relative="1" as="geometry">
            <mxPoint x="420" y="153" as="targetPoint" />
            <Array as="points">
              <mxPoint x="470" y="115" />
              <mxPoint x="470" y="153" />
            </Array>
          </mxGeometry>
        </mxCell>
        <mxCell id="S1LUNOR3-U_XrjzdLIpG-31" style="edgeStyle=orthogonalEdgeStyle;rounded=0;orthogonalLoop=1;jettySize=auto;html=1;entryX=0.5;entryY=1;entryDx=0;entryDy=0;" edge="1" parent="S1LUNOR3-U_XrjzdLIpG-32" source="S1LUNOR3-U_XrjzdLIpG-26" target="S1LUNOR3-U_XrjzdLIpG-9">
          <mxGeometry relative="1" as="geometry">
            <mxPoint x="160" y="85" as="targetPoint" />
          </mxGeometry>
        </mxCell>
        <mxCell id="S1LUNOR3-U_XrjzdLIpG-26" value="Symbol Data" style="swimlane;fontStyle=0;childLayout=stackLayout;horizontal=1;startSize=20;fillColor=#ffffff;horizontalStack=0;resizeParent=1;resizeParentMax=0;resizeLast=0;collapsible=0;marginBottom=0;swimlaneFillColor=#ffffff;" vertex="1" parent="S1LUNOR3-U_XrjzdLIpG-32">
          <mxGeometry x="360" y="115" width="100" height="50" as="geometry" />
        </mxCell>
        <mxCell id="S1LUNOR3-U_XrjzdLIpG-29" value="Array&amp;lt;&amp;gt;" style="html=1;dashed=0;whiteSpace=wrap;shape=partialRectangle;right=0;left=0;" vertex="1" parent="S1LUNOR3-U_XrjzdLIpG-26">
          <mxGeometry y="20" width="100" height="30" as="geometry" />
        </mxCell>
      </root>
    </mxGraphModel>
  </diagram>
</mxfile>
